STARTFONT 2.1
COMMENT This font image translated from Metafont
COMMENT Input file was ``aplox''
COMMENT DPI was ``300'', usermag ``500'', blackness ``3''
COMMENT shrink was 2
FONT aplox.150
SIZE 10 150 150
FONTBOUNDINGBOX 13 18 0 -3
STARTPROPERTIES 3
FONT_ASCENT 15
FONT_DESCENT 5
COPYRIGHT "Public Domain"
ENDPROPERTIES
CHARS 154
STARTCHAR C032
ENCODING 32
SWIDTH 336 0
DWIDTH 14 0
BBX 2 15 6 -1
BITMAP
0000
0000
0000
0000
0000
0000
0000
0000
0000
0000
0000
0000
0000
0000
0000
ENDCHAR
STARTCHAR C033
ENCODING 33
SWIDTH 336 0
DWIDTH 14 0
BBX 2 15 6 -1
BITMAP
c0
c0
c0
c0
c0
c0
c0
c0
c0
c0
80
00
80
80
80
ENDCHAR
STARTCHAR C034
ENCODING 34
SWIDTH 336 0
DWIDTH 14 0
BBX 6 5 3 9
BITMAP
cc
cc
cc
cc
84
ENDCHAR
STARTCHAR C035
ENCODING 35
SWIDTH 336 0
DWIDTH 14 0
BBX 9 11 1 0
BITMAP
6300
6300
6300
ff80
ff80
6300
ff80
ff80
6300
6300
2200
ENDCHAR
STARTCHAR C036
ENCODING 36
SWIDTH 336 0
DWIDTH 14 0
BBX 8 11 1 0
BITMAP
18
1c
7e
db
f8
7c
3a
fe
7c
18
10
ENDCHAR
STARTCHAR C037
ENCODING 37
SWIDTH 336 0
DWIDTH 14 0
BBX 9 14 1 -2
BITMAP
2080
7180
d380
6700
0600
0c00
1c00
1800
3800
3200
6700
e580
c700
8000
ENDCHAR
STARTCHAR C038
ENCODING 38
SWIDTH 336 0
DWIDTH 14 0
BBX 9 11 1 -2
BITMAP
3000
7800
cc00
cc00
7800
7880
cd80
c700
c700
7d80
1080
ENDCHAR
STARTCHAR C039
ENCODING 39
SWIDTH 336 0
DWIDTH 14 0
BBX 3 6 4 6
BITMAP
e0
e0
e0
e0
e0
e0
ENDCHAR
STARTCHAR C040
ENCODING 40
SWIDTH 336 0
DWIDTH 14 0
BBX 5 14 4 -2
BITMAP
18
30
60
60
c0
c0
c0
c0
c0
40
60
30
30
08
ENDCHAR
STARTCHAR C041
ENCODING 41
SWIDTH 336 0
DWIDTH 14 0
BBX 5 14 3 -2
BITMAP
80
c0
60
30
30
30
18
18
38
30
60
60
c0
80
ENDCHAR
STARTCHAR C042
ENCODING 42
SWIDTH 336 0
DWIDTH 14 0
BBX 8 8 2 1
BITMAP
18
18
9b
7e
38
38
24
00
ENDCHAR
STARTCHAR C043
ENCODING 43
SWIDTH 336 0
DWIDTH 14 0
BBX 8 8 1 1
BITMAP
18
18
18
ff
ff
18
18
10
ENDCHAR
STARTCHAR C044
ENCODING 44
SWIDTH 336 0
DWIDTH 14 0
BBX 6 5 1 -3
BITMAP
7c
38
70
c0
00
ENDCHAR
STARTCHAR C045
ENCODING 45
SWIDTH 336 0
DWIDTH 14 0
BBX 9 2 1 4
BITMAP
ff80
ff80
ENDCHAR
STARTCHAR C046
ENCODING 46
SWIDTH 336 0
DWIDTH 14 0
BBX 3 3 4 -1
BITMAP
e0
e0
e0
ENDCHAR
STARTCHAR C047
ENCODING 47
SWIDTH 336 0
DWIDTH 14 0
BBX 11 14 0 -2
BITMAP
0060
00c0
01c0
0180
0300
0600
0600
0c00
1800
3000
6000
6000
c000
8000
ENDCHAR
STARTCHAR C048
ENCODING 48
SWIDTH 336 0
DWIDTH 14 0
BBX 9 13 1 -1
BITMAP
1c00
7600
4100
c180
c180
c180
c180
c180
c180
c180
4300
3e00
1c00
ENDCHAR
STARTCHAR C049
ENCODING 49
SWIDTH 336 0
DWIDTH 14 0
BBX 8 14 1 -2
BITMAP
18
38
78
d8
98
18
18
18
18
18
18
18
ff
ff
ENDCHAR
STARTCHAR C050
ENCODING 50
SWIDTH 336 0
DWIDTH 14 0
BBX 9 14 1 -2
BITMAP
3e00
7f00
c180
c180
8180
0180
0300
0e00
1c00
7000
c000
c000
ff80
ff80
ENDCHAR
STARTCHAR C051
ENCODING 51
SWIDTH 336 0
DWIDTH 14 0
BBX 9 14 1 -2
BITMAP
ff80
ff80
0180
0300
0600
0c00
1e00
1f00
0180
0180
8180
e380
7f00
3e00
ENDCHAR
STARTCHAR C052
ENCODING 52
SWIDTH 336 0
DWIDTH 14 0
BBX 9 14 1 -2
BITMAP
0300
0700
0f00
1b00
2300
6300
c300
c300
c300
ff80
ff80
0300
0300
0200
ENDCHAR
STARTCHAR C053
ENCODING 53
SWIDTH 336 0
DWIDTH 14 0
BBX 9 14 1 -2
BITMAP
ff80
ff80
c000
c000
cc00
ff00
f380
c180
0180
0180
0180
e380
7f00
3c00
ENDCHAR
STARTCHAR C054
ENCODING 54
SWIDTH 336 0
DWIDTH 14 0
BBX 9 14 1 -2
BITMAP
1f00
3e00
6000
c000
c000
c000
de00
ff00
e180
c180
c180
c180
7f00
3c00
ENDCHAR
STARTCHAR C055
ENCODING 55
SWIDTH 336 0
DWIDTH 14 0
BBX 9 14 1 -2
BITMAP
ff80
ff80
0180
0300
0600
0e00
0c00
1800
1800
3000
3000
3000
6000
2000
ENDCHAR
STARTCHAR C056
ENCODING 56
SWIDTH 336 0
DWIDTH 14 0
BBX 9 14 1 -2
BITMAP
3e00
7f00
c180
c180
c180
c180
7f00
7f00
c180
c180
c180
c180
7f00
1c00
ENDCHAR
STARTCHAR C057
ENCODING 57
SWIDTH 336 0
DWIDTH 14 0
BBX 9 14 1 -2
BITMAP
3e00
7f00
c180
c180
c180
c380
7f80
3980
0180
0180
0300
0600
7c00
3800
ENDCHAR
STARTCHAR C058
ENCODING 58
SWIDTH 336 0
DWIDTH 14 0
BBX 3 11 4 -2
BITMAP
e0
e0
e0
00
00
00
00
e0
e0
e0
e0
ENDCHAR
STARTCHAR C059
ENCODING 59
SWIDTH 336 0
DWIDTH 14 0
BBX 6 12 1 -3
BITMAP
1c
1c
1c
00
00
00
00
1c
1c
38
60
80
ENDCHAR
STARTCHAR C060
ENCODING 60
SWIDTH 336 0
DWIDTH 14 0
BBX 7 14 3 -2
BITMAP
02
0c
18
30
60
c0
c0
c0
60
30
18
0c
06
02
ENDCHAR
STARTCHAR C061
ENCODING 61
SWIDTH 336 0
DWIDTH 14 0
BBX 9 6 1 2
BITMAP
ff80
ff80
0000
0000
ff80
ff80
ENDCHAR
STARTCHAR C062
ENCODING 62
SWIDTH 336 0
DWIDTH 14 0
BBX 8 14 1 -2
BITMAP
80
40
20
10
08
0c
07
07
0c
18
30
60
c0
00
ENDCHAR
STARTCHAR C063
ENCODING 63
SWIDTH 336 0
DWIDTH 14 0
BBX 9 14 1 -2
BITMAP
3e00
7f00
c180
c180
8180
0180
0300
0600
0c00
0c00
0400
0000
0c00
0400
ENDCHAR
STARTCHAR C064
ENCODING 64
SWIDTH 336 0
DWIDTH 14 0
BBX 9 14 1 -2
BITMAP
3e00
7f00
c180
c180
c980
df80
f780
f380
ff80
df80
c080
e000
7f80
1e00
ENDCHAR
STARTCHAR C065
ENCODING 65
SWIDTH 336 0
DWIDTH 14 0
BBX 9 13 1 -1
BITMAP
1c00
6600
4100
c180
c180
c180
c180
ff80
ff80
c180
c180
c180
c180
ENDCHAR
STARTCHAR C066
ENCODING 66
SWIDTH 336 0
DWIDTH 14 0
BBX 11 14 0 -2
BITMAP
ff80
ffc0
60c0
6060
6060
60c0
7f80
7f80
60e0
6060
6060
60c0
ff80
ff00
ENDCHAR
STARTCHAR C067
ENCODING 67
SWIDTH 336 0
DWIDTH 14 0
BBX 9 14 1 -2
BITMAP
3e00
7f00
c180
c000
c000
c000
c000
c000
c000
c000
c080
c180
7f00
3c00
ENDCHAR
STARTCHAR C068
ENCODING 68
SWIDTH 336 0
DWIDTH 14 0
BBX 11 14 0 -2
BITMAP
ff80
ffc0
60c0
6060
6060
6060
6060
6060
6060
6060
6060
60c0
ff80
ff00
ENDCHAR
STARTCHAR C069
ENCODING 69
SWIDTH 336 0
DWIDTH 14 0
BBX 9 14 1 -2
BITMAP
ff80
ff80
c000
c000
c000
c000
fc00
fc00
c000
c000
c000
c000
ff80
ff80
ENDCHAR
STARTCHAR C070
ENCODING 70
SWIDTH 336 0
DWIDTH 14 0
BBX 9 14 1 -2
BITMAP
ff80
ff80
c000
c000
c000
c000
fc00
fc00
c000
c000
c000
c000
c000
8000
ENDCHAR
STARTCHAR C071
ENCODING 71
SWIDTH 336 0
DWIDTH 14 0
BBX 9 14 1 -2
BITMAP
3e00
7f00
c180
c000
c000
c000
c000
c780
cf80
c180
c380
c780
7f80
3880
ENDCHAR
STARTCHAR C072
ENCODING 72
SWIDTH 336 0
DWIDTH 14 0
BBX 9 14 1 -2
BITMAP
c180
c180
c180
c180
c180
c180
ff80
ff80
c180
c180
c180
c180
c180
8080
ENDCHAR
STARTCHAR C073
ENCODING 73
SWIDTH 336 0
DWIDTH 14 0
BBX 8 14 1 -2
BITMAP
ff
ff
18
18
18
18
18
18
18
18
18
18
ff
ff
ENDCHAR
STARTCHAR C074
ENCODING 74
SWIDTH 336 0
DWIDTH 14 0
BBX 9 14 1 -2
BITMAP
1f80
1f80
0300
0300
0300
0300
0300
0300
0300
0300
8200
e600
7c00
3800
ENDCHAR
STARTCHAR C075
ENCODING 75
SWIDTH 336 0
DWIDTH 14 0
BBX 9 14 1 -2
BITMAP
c080
c300
c600
cc00
d800
f000
f000
f000
d800
cc00
c600
c300
c180
8080
ENDCHAR
STARTCHAR C076
ENCODING 76
SWIDTH 336 0
DWIDTH 14 0
BBX 9 14 1 -2
BITMAP
c000
c000
c000
c000
c000
c000
c000
c000
c000
c000
c000
c000
ff80
ff80
ENDCHAR
STARTCHAR C077
ENCODING 77
SWIDTH 336 0
DWIDTH 14 0
BBX 11 14 0 -2
BITMAP
c060
c0e0
c0e0
e1e0
f1e0
d360
de60
cc60
cc60
c060
c060
c060
c060
8060
ENDCHAR
STARTCHAR C078
ENCODING 78
SWIDTH 336 0
DWIDTH 14 0
BBX 9 14 1 -2
BITMAP
c180
c180
e180
e180
f180
d980
cd80
c780
c380
c380
c180
c180
c180
8080
ENDCHAR
STARTCHAR C079
ENCODING 79
SWIDTH 336 0
DWIDTH 14 0
BBX 9 14 1 -2
BITMAP
3e00
7f00
c180
c180
c180
c180
c180
c180
c180
c180
c180
c180
7f00
3c00
ENDCHAR
STARTCHAR C080
ENCODING 80
SWIDTH 336 0
DWIDTH 14 0
BBX 9 14 1 -2
BITMAP
fe00
ff00
c180
c180
c180
c180
ff00
fe00
c000
c000
c000
c000
c000
8000
ENDCHAR
STARTCHAR C081
ENCODING 81
SWIDTH 336 0
DWIDTH 14 0
BBX 9 15 1 -3
BITMAP
3e00
7f00
c180
c180
c180
c180
c180
c180
c180
d180
c980
cd80
7f00
3f00
0180
ENDCHAR
STARTCHAR C082
ENCODING 82
SWIDTH 336 0
DWIDTH 14 0
BBX 9 14 1 -2
BITMAP
fe00
ff00
c180
c180
c180
c180
ff00
fe00
d800
cc00
c600
c300
c180
8080
ENDCHAR
STARTCHAR C083
ENCODING 83
SWIDTH 336 0
DWIDTH 14 0
BBX 9 14 1 -2
BITMAP
3e00
7f00
c180
c000
c000
c000
7e00
3f00
0180
0180
0180
e380
7f00
3c00
ENDCHAR
STARTCHAR C084
ENCODING 84
SWIDTH 336 0
DWIDTH 14 0
BBX 11 14 0 -2
BITMAP
ffe0
ffe0
0c00
0c00
0c00
0c00
0c00
0c00
0c00
0c00
0c00
0c00
0c00
0400
ENDCHAR
STARTCHAR C085
ENCODING 85
SWIDTH 336 0
DWIDTH 14 0
BBX 9 14 1 -2
BITMAP
c180
c180
c180
c180
c180
c180
c180
c180
c180
c180
c180
e380
7f00
3c00
ENDCHAR
STARTCHAR C086
ENCODING 86
SWIDTH 336 0
DWIDTH 14 0
BBX 11 14 0 -2
BITMAP
8020
c060
c0c0
40c0
6080
6180
2180
3100
3300
1300
1a00
1e00
0c00
0000
ENDCHAR
STARTCHAR C087
ENCODING 87
SWIDTH 336 0
DWIDTH 14 0
BBX 11 14 0 -2
BITMAP
c060
c060
c060
c060
c060
c060
cc60
cc60
cc60
cc60
de60
f3c0
6180
2000
ENDCHAR
STARTCHAR C088
ENCODING 88
SWIDTH 336 0
DWIDTH 14 0
BBX 11 14 0 -2
BITMAP
c060
c060
c0c0
6080
3100
1e00
1e00
1e00
1f00
2180
40c0
c0e0
c060
8060
ENDCHAR
STARTCHAR C089
ENCODING 89
SWIDTH 336 0
DWIDTH 14 0
BBX 11 14 0 -2
BITMAP
c060
c060
c0c0
60c0
3180
1f00
0e00
0c00
0c00
0c00
0c00
0c00
0c00
0400
ENDCHAR
STARTCHAR C090
ENCODING 90
SWIDTH 336 0
DWIDTH 14 0
BBX 9 14 1 -2
BITMAP
ff80
ff80
0180
0300
0600
0c00
1800
3000
6000
c000
c000
c000
ff80
ff80
ENDCHAR
STARTCHAR C091
ENCODING 91
SWIDTH 336 0
DWIDTH 14 0
BBX 6 14 3 -2
BITMAP
fc
fc
c0
c0
c0
c0
c0
c0
c0
c0
c0
c0
fc
fc
ENDCHAR
STARTCHAR C092
ENCODING 92
SWIDTH 336 0
DWIDTH 14 0
BBX 11 14 0 -2
BITMAP
8000
c000
4000
6000
3000
1800
0c00
0600
0300
0300
0180
00c0
0060
0020
ENDCHAR
STARTCHAR C093
ENCODING 93
SWIDTH 336 0
DWIDTH 14 0
BBX 6 14 3 -2
BITMAP
fc
fc
0c
0c
0c
0c
0c
0c
0c
0c
0c
0c
fc
fc
ENDCHAR
STARTCHAR C094
ENCODING 94
SWIDTH 336 0
DWIDTH 14 0
BBX 11 11 0 0
BITMAP
0c00
0c00
1a00
1300
3100
2180
6080
40c0
c0c0
8040
0020
ENDCHAR
STARTCHAR C095
ENCODING 95
SWIDTH 336 0
DWIDTH 14 0
BBX 12 2 0 -3
BITMAP
fff0
fff0
ENDCHAR
STARTCHAR C096
ENCODING 96
SWIDTH 336 0
DWIDTH 14 0
BBX 6 5 3 7
BITMAP
e0
f0
78
1c
04
ENDCHAR
STARTCHAR C097
ENCODING 97
SWIDTH 336 0
DWIDTH 14 0
BBX 9 9 1 -1
BITMAP
7e00
3f00
0180
3f80
ff80
c180
c380
7f80
3d80
ENDCHAR
STARTCHAR C098
ENCODING 98
SWIDTH 336 0
DWIDTH 14 0
BBX 9 14 1 -2
BITMAP
c000
c000
c000
c000
cc00
ff00
f180
c180
c180
c180
c180
e180
ff00
8c00
ENDCHAR
STARTCHAR C099
ENCODING 99
SWIDTH 336 0
DWIDTH 14 0
BBX 9 9 1 -1
BITMAP
3e00
7f00
c180
c000
c000
c000
c080
ff00
3e00
ENDCHAR
STARTCHAR C100
ENCODING 100
SWIDTH 336 0
DWIDTH 14 0
BBX 9 14 1 -2
BITMAP
0180
0180
0180
0180
1980
7d80
c780
c180
c180
c180
c180
c780
7d80
3880
ENDCHAR
STARTCHAR C101
ENCODING 101
SWIDTH 336 0
DWIDTH 14 0
BBX 9 9 1 -1
BITMAP
3e00
7f00
c180
ff80
ff80
c000
c000
fe00
3e00
ENDCHAR
STARTCHAR C102
ENCODING 102
SWIDTH 336 0
DWIDTH 14 0
BBX 9 14 1 -2
BITMAP
1e00
3f80
6180
6000
6000
6000
ff00
fe00
6000
6000
6000
6000
6000
2000
ENDCHAR
STARTCHAR C103
ENCODING 103
SWIDTH 336 0
DWIDTH 14 0
BBX 9 12 1 -4
BITMAP
3c80
7f00
c300
c200
7e00
7c00
c000
fc00
7f00
c180
7f00
3e00
ENDCHAR
STARTCHAR C104
ENCODING 104
SWIDTH 336 0
DWIDTH 14 0
BBX 9 14 1 -2
BITMAP
c000
c000
c000
c000
cc00
ff00
f380
c180
c180
c180
c180
c180
c180
8080
ENDCHAR
STARTCHAR C105
ENCODING 105
SWIDTH 336 0
DWIDTH 14 0
BBX 8 12 1 -1
BITMAP
18
10
00
78
38
18
18
18
18
18
ff
ff
ENDCHAR
STARTCHAR C106
ENCODING 106
SWIDTH 336 0
DWIDTH 14 0
BBX 8 15 1 -4
BITMAP
03
03
00
0f
07
03
03
03
03
03
83
c3
c7
fe
7c
ENDCHAR
STARTCHAR C107
ENCODING 107
SWIDTH 336 0
DWIDTH 14 0
BBX 9 14 1 -2
BITMAP
c000
c000
c000
c000
c000
c600
cc00
f800
f800
dc00
c600
c300
c180
8080
ENDCHAR
STARTCHAR C108
ENCODING 108
SWIDTH 336 0
DWIDTH 14 0
BBX 8 14 1 -2
BITMAP
78
38
18
18
18
18
18
18
18
18
18
18
ff
ff
ENDCHAR
STARTCHAR C109
ENCODING 109
SWIDTH 336 0
DWIDTH 14 0
BBX 11 9 0 -1
BITMAP
f380
ffc0
ccc0
cc60
cc60
cc60
cc60
c460
c060
ENDCHAR
STARTCHAR C110
ENCODING 110
SWIDTH 336 0
DWIDTH 14 0
BBX 9 9 1 -1
BITMAP
de00
ff00
e180
c180
c180
c180
c180
c180
c180
ENDCHAR
STARTCHAR C111
ENCODING 111
SWIDTH 336 0
DWIDTH 14 0
BBX 9 9 1 -1
BITMAP
3e00
7f00
c180
c180
c180
c180
c180
7f00
3e00
ENDCHAR
STARTCHAR C112
ENCODING 112
SWIDTH 336 0
DWIDTH 14 0
BBX 9 12 1 -4
BITMAP
de00
ff00
e180
c180
c180
e180
ff00
cc00
c000
c000
c000
c000
ENDCHAR
STARTCHAR C113
ENCODING 113
SWIDTH 336 0
DWIDTH 14 0
BBX 9 12 1 -4
BITMAP
3d80
7f80
c380
c180
c180
c780
7f80
3980
0180
0180
0180
0180
ENDCHAR
STARTCHAR C114
ENCODING 114
SWIDTH 336 0
DWIDTH 14 0
BBX 9 9 1 -1
BITMAP
9e00
ff00
6080
6000
6000
6000
6000
6000
6000
ENDCHAR
STARTCHAR C115
ENCODING 115
SWIDTH 336 0
DWIDTH 14 0
BBX 9 9 1 -1
BITMAP
3e00
7f00
c180
7000
3c00
0f00
8180
7f00
3e00
ENDCHAR
STARTCHAR C116
ENCODING 116
SWIDTH 336 0
DWIDTH 14 0
BBX 9 12 1 -1
BITMAP
6000
6000
6000
ff00
fe00
6000
6000
6000
6000
6080
3f00
1e00
ENDCHAR
STARTCHAR C117
ENCODING 117
SWIDTH 336 0
DWIDTH 14 0
BBX 9 9 1 -1
BITMAP
c300
c300
c300
c300
c300
c300
c700
ff80
7880
ENDCHAR
STARTCHAR C118
ENCODING 118
SWIDTH 336 0
DWIDTH 14 0
BBX 8 9 1 -1
BITMAP
c3
c3
c3
c7
c6
66
6c
38
10
ENDCHAR
STARTCHAR C119
ENCODING 119
SWIDTH 336 0
DWIDTH 14 0
BBX 11 9 0 -1
BITMAP
c060
c060
c060
cc60
cc60
ce60
dae0
71c0
2180
ENDCHAR
STARTCHAR C120
ENCODING 120
SWIDTH 336 0
DWIDTH 14 0
BBX 9 9 1 -1
BITMAP
8080
4100
2200
3c00
1c00
3c00
2600
4100
8080
ENDCHAR
STARTCHAR C121
ENCODING 121
SWIDTH 336 0
DWIDTH 14 0
BBX 9 12 1 -4
BITMAP
c180
c180
c180
c180
c180
c780
7f80
1980
0180
8180
7f00
3e00
ENDCHAR
STARTCHAR C122
ENCODING 122
SWIDTH 336 0
DWIDTH 14 0
BBX 9 9 1 -1
BITMAP
ff80
ff00
0200
0400
0800
1000
2000
7f80
ff80
ENDCHAR
STARTCHAR C123
ENCODING 123
SWIDTH 336 0
DWIDTH 14 0
BBX 8 14 1 -2
BITMAP
1e
3f
60
60
30
10
e0
e0
10
30
70
30
3f
0c
ENDCHAR
STARTCHAR C124
ENCODING 124
SWIDTH 336 0
DWIDTH 14 0
BBX 2 17 4 -3
BITMAP
c0
c0
c0
c0
c0
c0
c0
c0
00
c0
c0
c0
c0
c0
c0
c0
c0
ENDCHAR
STARTCHAR C125
ENCODING 125
SWIDTH 336 0
DWIDTH 14 0
BBX 8 14 1 -2
BITMAP
70
f8
0c
0c
18
18
0f
0e
18
0c
0c
1c
f8
70
ENDCHAR
STARTCHAR C126
ENCODING 126
SWIDTH 336 0
DWIDTH 14 0
BBX 8 4 1 3
BITMAP
61
f2
9e
04
ENDCHAR
STARTCHAR C128
ENCODING 128
SWIDTH 336 0
DWIDTH 14 0
BBX 11 11 0 0
BITMAP
0060
0060
0060
0060
ffe0
ffe0
0060
0060
0060
0060
0060
ENDCHAR
STARTCHAR C129
ENCODING 129
SWIDTH 336 0
DWIDTH 14 0
BBX 11 11 0 0
BITMAP
c000
c000
c000
c000
ffe0
ffe0
c000
c000
c000
c000
8000
ENDCHAR
STARTCHAR C130
ENCODING 130
SWIDTH 336 0
DWIDTH 14 0
BBX 11 9 0 2
BITMAP
3fe0
7fe0
c000
c000
c000
c000
c000
ffe0
3fe0
ENDCHAR
STARTCHAR C131
ENCODING 131
SWIDTH 336 0
DWIDTH 14 0
BBX 11 9 0 2
BITMAP
ff80
ffc0
00c0
0060
0060
0060
00c0
ffc0
ff80
ENDCHAR
STARTCHAR C132
ENCODING 132
SWIDTH 336 0
DWIDTH 14 0
BBX 11 14 0 -2
BITMAP
ffe0
ffe0
0c00
0c00
0c00
0c00
0c00
0c00
0c00
0c00
0c00
0c00
ffe0
ffe0
ENDCHAR
STARTCHAR C133
ENCODING 133
SWIDTH 336 0
DWIDTH 14 0
BBX 10 11 0 1
BITMAP
0c00
0600
0300
0180
ffc0
ffc0
0180
0380
0300
0600
0800
ENDCHAR
STARTCHAR C134
ENCODING 134
SWIDTH 336 0
DWIDTH 14 0
BBX 12 15 0 -1
BITMAP
0010
0020
0040
00c0
ffc0
ffe0
0300
0600
1c00
ffe0
ffc0
3000
6000
c000
8000
ENDCHAR
STARTCHAR C137
ENCODING 137
SWIDTH 336 0
DWIDTH 14 0
BBX 11 11 0 1
BITMAP
3f80
7fc0
ccc0
cce0
ffe0
df60
de60
f3e0
e1c0
7f80
3f00
ENDCHAR
STARTCHAR C139
ENCODING 139
SWIDTH 336 0
DWIDTH 14 0
BBX 11 13 0 -1
BITMAP
0c00
0c00
0c00
0c00
0c00
0c00
0c00
8c20
cc40
6d80
3f80
1f00
0c00
ENDCHAR
STARTCHAR C140
ENCODING 140
SWIDTH 336 0
DWIDTH 14 0
BBX 11 13 0 -1
BITMAP
0c00
1e00
3f00
6d80
ccc0
8c60
0c00
0c00
0c00
0c00
0c00
0c00
0c00
ENDCHAR
STARTCHAR C141
ENCODING 141
SWIDTH 336 0
DWIDTH 14 0
BBX 8 17 1 -3
BITMAP
ff
ff
c0
c0
c0
c0
c0
c0
c0
c0
c0
c0
c0
c0
c0
c0
80
ENDCHAR
STARTCHAR C143
ENCODING 143
SWIDTH 336 0
DWIDTH 14 0
BBX 8 17 1 -3
BITMAP
c0
c0
c0
c0
c0
c0
c0
c0
c0
c0
c0
c0
c0
c0
c0
ff
ff
ENDCHAR
STARTCHAR C144
ENCODING 144
SWIDTH 336 0
DWIDTH 14 0
BBX 10 10 0 2
BITMAP
0800
3000
6000
6000
ffc0
ffc0
6000
3000
1800
0c00
ENDCHAR
STARTCHAR C145
ENCODING 145
SWIDTH 336 0
DWIDTH 14 0
BBX 11 12 0 0
BITMAP
0400
0c00
1a00
1300
3100
2180
6080
c0c0
c0e0
c060
ffe0
ffe0
ENDCHAR
STARTCHAR C146
ENCODING 146
SWIDTH 336 0
DWIDTH 14 0
BBX 8 8 1 3
BITMAP
83
46
3c
38
38
7c
c2
01
ENDCHAR
STARTCHAR C147
ENCODING 147
SWIDTH 336 0
DWIDTH 14 0
BBX 11 18 0 -3
BITMAP
0c00
0c00
0c00
0c00
0e00
1e00
1f00
3d00
2d80
6c80
4cc0
cc40
cc60
ffe0
ffe0
0c00
0c00
0c00
ENDCHAR
STARTCHAR C149
ENCODING 149
SWIDTH 336 0
DWIDTH 14 0
BBX 11 18 0 -3
BITMAP
ffe0
ffe0
c060
c060
c060
c060
c060
c060
c060
c060
c060
c060
c060
c060
c060
c060
ffe0
ffe0
ENDCHAR
STARTCHAR C151
ENCODING 151
SWIDTH 336 0
DWIDTH 14 0
BBX 11 18 0 -3
BITMAP
ffe0
ffe0
cc60
cc60
cc60
cc60
c060
c060
c060
c060
c060
c060
c060
c060
c060
c060
ffe0
ffe0
ENDCHAR
STARTCHAR C152
ENCODING 152
SWIDTH 336 0
DWIDTH 14 0
BBX 11 18 0 -3
BITMAP
ffe0
ffe0
c060
cc60
cc60
cc60
c060
ffe0
ffe0
c060
c460
cc60
cc60
c460
c060
c060
ffe0
ffe0
ENDCHAR
STARTCHAR C154
ENCODING 154
SWIDTH 336 0
DWIDTH 14 0
BBX 9 3 1 11
BITMAP
e380
e380
e380
ENDCHAR
STARTCHAR C157
ENCODING 157
SWIDTH 336 0
DWIDTH 14 0
BBX 11 18 0 -3
BITMAP
0c00
0c00
0c00
ffe0
ffe0
cc60
cc40
4cc0
4c80
2d80
2d00
3d00
1e00
1e00
0c00
0c00
0c00
0c00
ENDCHAR
STARTCHAR C158
ENCODING 158
SWIDTH 336 0
DWIDTH 14 0
BBX 9 11 1 -2
BITMAP
ff80
ff80
0000
0000
1c00
1c00
3000
3000
6000
c000
0000
ENDCHAR
STARTCHAR C161
ENCODING 161
SWIDTH 336 0
DWIDTH 14 0
BBX 11 18 0 -3
BITMAP
ffe0
ffe0
c060
c060
ffe0
ffe0
c0e0
e0e0
e1e0
d160
d260
ca60
cc60
c060
c060
c060
ffe0
ffe0
ENDCHAR
STARTCHAR C162
ENCODING 162
SWIDTH 336 0
DWIDTH 14 0
BBX 11 18 0 -3
BITMAP
ffe0
ffe0
c060
c060
c060
c860
d860
ffe0
ffe0
d860
c860
c060
c060
c060
c060
c060
ffe0
ffe0
ENDCHAR
STARTCHAR C163
ENCODING 163
SWIDTH 336 0
DWIDTH 14 0
BBX 11 18 0 -3
BITMAP
ffe0
ffe0
c060
c060
c060
c460
c660
ffe0
ffe0
c360
c660
c460
c060
c060
c060
c060
ffe0
ffe0
ENDCHAR
STARTCHAR C166
ENCODING 166
SWIDTH 336 0
DWIDTH 14 0
BBX 11 14 0 -2
BITMAP
3f80
7fc0
c0e0
ce60
ff60
e1e0
e0e0
e0e0
f1e0
ff60
ce60
c060
c060
8060
ENDCHAR
STARTCHAR C167
ENCODING 167
SWIDTH 336 0
DWIDTH 14 0
BBX 11 14 0 -2
BITMAP
8000
c000
4000
6000
3000
1800
7fe0
3fe0
0600
0300
0180
00c0
0040
0020
ENDCHAR
STARTCHAR C168
ENCODING 168
SWIDTH 336 0
DWIDTH 14 0
BBX 11 11 0 1
BITMAP
0c00
0e00
1300
2180
40c0
c060
4080
2100
1200
0c00
0400
ENDCHAR
STARTCHAR C174
ENCODING 174
SWIDTH 336 0
DWIDTH 14 0
BBX 10 10 0 2
BITMAP
0800
1800
3fc0
7fc0
c000
ffc0
7fc0
3000
1800
0c00
ENDCHAR
STARTCHAR C175
ENCODING 175
SWIDTH 336 0
DWIDTH 14 0
BBX 10 11 0 1
BITMAP
0800
0600
0300
ff80
ffc0
0040
ffc0
ff80
0600
0400
0800
ENDCHAR
STARTCHAR C224
ENCODING 224
SWIDTH 336 0
DWIDTH 14 0
BBX 11 9 0 2
BITMAP
3820
7c40
c280
8380
8300
8300
c380
ff80
7cc0
ENDCHAR
STARTCHAR C226
ENCODING 226
SWIDTH 336 0
DWIDTH 14 0
BBX 5 11 3 0
BITMAP
e0
e0
30
30
60
60
e0
e0
60
78
18
ENDCHAR
STARTCHAR C227
ENCODING 227
SWIDTH 336 0
DWIDTH 14 0
BBX 8 13 1 2
BITMAP
e6
ef
46
00
00
10
7c
c6
c3
c3
c3
fe
7c
ENDCHAR
STARTCHAR C228
ENCODING 228
SWIDTH 336 0
DWIDTH 14 0
BBX 11 15 0 0
BITMAP
3380
7b80
3100
0000
3f80
7fc0
c0c0
c060
c060
c060
c060
c060
c0c0
7f80
3f00
ENDCHAR
STARTCHAR C229
ENCODING 229
SWIDTH 336 0
DWIDTH 14 0
BBX 11 10 0 2
BITMAP
8020
c060
e0c0
70c0
e9a0
a5c0
3380
1300
1a00
0c00
ENDCHAR
STARTCHAR C230
ENCODING 230
SWIDTH 336 0
DWIDTH 14 0
BBX 11 12 0 0
BITMAP
0c00
0c00
0c00
0c00
0c00
0c00
0c00
0c00
0c00
0c00
ffe0
ffe0
ENDCHAR
STARTCHAR C231
ENCODING 231
SWIDTH 336 0
DWIDTH 14 0
BBX 11 12 0 0
BITMAP
ffe0
ffe0
0c00
0c00
0c00
0c00
0c00
0c00
0c00
0c00
0c00
0c00
ENDCHAR
STARTCHAR C232
ENCODING 232
SWIDTH 336 0
DWIDTH 14 0
BBX 11 18 0 -3
BITMAP
0c00
0c00
0c00
3f80
7fc0
ccc0
cc60
cc60
cc60
cc60
cc60
ccc0
7f80
3f00
0c00
0c00
0c00
0c00
ENDCHAR
STARTCHAR C233
ENCODING 233
SWIDTH 336 0
DWIDTH 14 0
BBX 11 11 0 1
BITMAP
3f80
7fc0
c0c0
c060
ffe0
ffe0
c060
c060
c0c0
7f80
3f00
ENDCHAR
STARTCHAR C234
ENCODING 234
SWIDTH 336 0
DWIDTH 14 0
BBX 11 10 0 2
BITMAP
0c00
1a00
3a00
7b20
bd60
67c0
6180
c0c0
c060
8060
ENDCHAR
STARTCHAR C235
ENCODING 235
SWIDTH 336 0
DWIDTH 14 0
BBX 11 14 0 -2
BITMAP
0060
00c0
0080
0180
0300
0600
7fe0
3fe0
1800
3000
6000
4000
c000
0000
ENDCHAR
STARTCHAR C236
ENCODING 236
SWIDTH 336 0
DWIDTH 14 0
BBX 11 12 0 0
BITMAP
ffe0
ffe0
c060
c060
40c0
6080
2180
2100
1300
1200
0e00
0c00
ENDCHAR
STARTCHAR C237
ENCODING 237
SWIDTH 336 0
DWIDTH 14 0
BBX 12 13 0 0
BITMAP
c000
7f80
7fc0
c0c0
d060
c860
c460
c260
c160
c0e0
7fe0
3fe0
0010
ENDCHAR
STARTCHAR C238
ENCODING 238
SWIDTH 336 0
DWIDTH 14 0
BBX 9 11 0 0
BITMAP
3f00
7f80
c000
c000
6000
7c00
c000
c000
c000
7f80
1e00
ENDCHAR
STARTCHAR C239
ENCODING 239
SWIDTH 336 0
DWIDTH 14 0
BBX 9 12 0 0
BITMAP
3e00
7f00
c180
c180
c180
c180
c180
c180
c180
c180
c180
c180
ENDCHAR
STARTCHAR C240
ENCODING 240
SWIDTH 336 0
DWIDTH 14 0
BBX 11 12 0 -1
BITMAP
ffe0
ffe0
0000
0000
0000
ffe0
ffe0
0000
0000
0000
ffe0
ffe0
ENDCHAR
STARTCHAR C242
ENCODING 242
SWIDTH 336 0
DWIDTH 14 0
BBX 8 16 1 -3
BITMAP
c0
60
30
18
0c
06
03
04
08
10
20
40
80
00
ff
ff
ENDCHAR
STARTCHAR C243
ENCODING 243
SWIDTH 336 0
DWIDTH 14 0
BBX 8 17 1 -3
BITMAP
03
06
0c
18
30
60
c0
c0
60
30
18
0c
06
01
00
ff
ff
ENDCHAR
STARTCHAR C244
ENCODING 244
SWIDTH 336 0
DWIDTH 14 0
BBX 11 12 0 0
BITMAP
ffe0
ffe0
0c00
1e00
3f00
6d80
6d80
3f00
1e00
0c00
0c00
0c00
ENDCHAR
STARTCHAR C245
ENCODING 245
SWIDTH 336 0
DWIDTH 14 0
BBX 11 12 0 0
BITMAP
0c00
0c00
0c00
1e00
3f00
6d80
6d80
3f00
1e00
0c00
ffe0
ffe0
ENDCHAR
STARTCHAR C246
ENCODING 246
SWIDTH 336 0
DWIDTH 14 0
BBX 9 11 1 1
BITMAP
1c00
1c00
0000
0000
ff80
ff80
0000
0000
0000
1c00
1c00
ENDCHAR
STARTCHAR C247
ENCODING 247
SWIDTH 336 0
DWIDTH 14 0
BBX 11 9 0 2
BITMAP
c000
c040
c060
c460
cc60
cc60
cec0
7fc0
3380
ENDCHAR
STARTCHAR C248
ENCODING 248
SWIDTH 336 0
DWIDTH 14 0
BBX 8 8 1 1
BITMAP
3c
7e
c3
83
c3
c6
7c
38
ENDCHAR
STARTCHAR C249
ENCODING 249
SWIDTH 336 0
DWIDTH 14 0
BBX 11 11 0 1
BITMAP
3f80
7fc0
c0c0
c060
c060
c060
c060
c060
c0c0
7f80
3f00
ENDCHAR
STARTCHAR C250
ENCODING 250
SWIDTH 336 0
DWIDTH 14 0
BBX 11 11 0 0
BITMAP
8020
c060
c0c0
60c0
6180
2180
3300
1200
1a00
0c00
0000
ENDCHAR
STARTCHAR C251
ENCODING 251
SWIDTH 336 0
DWIDTH 14 0
BBX 8 14 3 -3
BITMAP
3c
7e
c2
c3
c3
c6
fc
f8
c0
c0
c0
c0
c0
80
ENDCHAR
STARTCHAR C252
ENCODING 252
SWIDTH 336 0
DWIDTH 14 0
BBX 9 12 0 0
BITMAP
c180
c180
c180
c180
c180
c180
c180
c180
c180
c180
7f00
3e00
ENDCHAR
STARTCHAR C253
ENCODING 253
SWIDTH 336 0
DWIDTH 14 0
BBX 11 2 0 12
BITMAP
ffe0
ffe0
ENDCHAR
STARTCHAR C254
ENCODING 254
SWIDTH 336 0
DWIDTH 14 0
BBX 2 17 4 -3
BITMAP
c0
c0
c0
c0
c0
c0
c0
c0
c0
c0
c0
c0
c0
c0
c0
c0
c0
ENDCHAR
ENDFONT
